<svg xmlns="http://www.w3.org/2000/svg" viewBox="0 0 64 64" xml:space="preserve" style="fill-rule:evenodd;clip-rule:evenodd;stroke-linecap:round;stroke-linejoin:round;stroke-miterlimit:2"><path d="M17 29.307h18M39.5 29.307h10.848A5.652 5.652 0 0 0 56 23.655v-.003A5.651 5.651 0 0 0 50.348 18h-4.372M17 34.693h8M33.446 34.693h16.902A5.651 5.651 0 0 1 56 40.345v.003A5.651 5.651 0 0 1 50.348 46h-4.372M8 17.921h22.726a2.719 2.719 0 0 0 2.72-2.72V15.2a2.719 2.719 0 0 0-2.72-2.72h-2.291M8 46.079h22.726a2.719 2.719 0 0 1 2.72 2.72v.001a2.719 2.719 0 0 1-2.72 2.72h-2.291" style="fill:none;stroke:black;stroke-width:2px"/></svg>